<svg width="32" height="32" viewBox="0 0 32 32" fill="none" xmlns="http://www.w3.org/2000/svg">
<rect width="32" height="32" rx="16" fill="white"/>
<path d="M20.3779 17.044L13.7119 23.7099C13.65 23.7719 13.5765 23.821 13.4956 23.8545C13.4146 23.888 13.3279 23.9053 13.2403 23.9053C13.1527 23.9053 13.066 23.888 12.9851 23.8545C12.9042 23.821 12.8306 23.7719 12.7687 23.7099C12.7068 23.648 12.6577 23.5745 12.6241 23.4935C12.5906 23.4126 12.5734 23.3259 12.5734 23.2383C12.5734 23.1507 12.5906 23.064 12.6241 22.9831C12.6577 22.9022 12.7068 22.8286 12.7687 22.7667L18.9639 16.5724L12.7687 10.3781C12.6436 10.253 12.5734 10.0834 12.5734 9.90646C12.5734 9.72958 12.6436 9.55993 12.7687 9.43485C12.8938 9.30977 13.0634 9.2395 13.2403 9.2395C13.4172 9.2395 13.5869 9.30977 13.7119 9.43485L20.3779 16.1008C20.4398 16.1627 20.489 16.2362 20.5226 16.3171C20.5561 16.398 20.5734 16.4848 20.5734 16.5724C20.5734 16.66 20.5561 16.7467 20.5226 16.8277C20.489 16.9086 20.4398 16.9821 20.3779 17.044Z" fill="black"/>
</svg>
