<svg width="139" height="48" viewBox="0 0 139 48" fill="none" xmlns="http://www.w3.org/2000/svg">
<path d="M2.51462 23.4687C2.51462 23.4687 15.1945 10.4038 26.1682 7.74173C40.7472 4.20512 51.2211 24.6385 50.2802 34.7533C49.3393 44.8682 39.4596 45.8092 33.1084 44.8682C26.7572 43.9273 21.935 36.1297 24.1697 27.3436C26.4043 18.5574 41.3613 2.04223 62.2197 3.71523C83.0781 5.38822 93.1476 16.7575 85.0162 28.4393C82.0382 32.7175 78.1598 34.8899 74.1088 36.1297C70.0579 37.3696 61.6756 35.1325 62.3582 26.622C63.0408 18.1114 80.5018 3.85033 95.4296 6.37891C108.799 8.64356 121.351 18.834 120.51 29.309C119.67 39.7841 109.773 38.9902 107.646 38.8197C105.519 38.6491 99.7772 37.3644 99.249 29.5809C98.7207 21.7974 104.711 -2.59527 136.7 4.00633" stroke="black" stroke-width="4.0757" stroke-linecap="round"/>
</svg>
