<svg width="68" height="32" viewBox="0 0 68 32" fill="none" xmlns="http://www.w3.org/2000/svg">
<path fill-rule="evenodd" clip-rule="evenodd" d="M7.53162 2.72645C7.36876 1.93958 6.55125 1.9619 5.14378 3.0326C4.91314 3.21139 4.65682 3.34843 4.40519 3.48297C3.81168 3.80029 3.24422 4.10368 3.10125 4.90814C2.22144 9.69308 0.557801 22.8666 0.00781592 30.2713C-0.129105 32.0125 1.57588 32.0183 1.75756 30.1851C2.1922 25.7741 3.25019 15.9542 3.99592 10.8798C4.22012 12.4407 4.37521 14.3394 4.53522 16.2982C4.82902 19.895 5.1394 23.6947 5.92461 25.9787C6.14617 26.6525 6.6489 27.027 7.17453 27.4185C7.5119 27.6698 7.85869 27.9281 8.14663 28.2771C8.6489 28.8982 9.27605 28.8475 9.44569 27.8538C10.2369 23.148 11.9205 14.7429 13.7942 7.9577C13.716 10.8187 13.5635 22.9238 13.7623 27.66C13.7921 28.2082 14.159 28.3906 14.7035 28.6613C15.1265 28.8717 15.6566 29.1353 16.2192 29.6651C16.4766 29.9534 17.4099 30.1197 17.4225 29.2801C17.4258 29.004 17.4305 28.5811 17.4365 28.037C17.4929 22.9178 17.6677 7.06504 17.9522 1.65901C18.0441 0.00978407 17.8021 -0.762776 15.2297 1.02105C15.0754 1.13294 14.922 1.20502 14.7705 1.2762C14.2802 1.50649 13.8098 1.72743 13.3963 3.25723C11.6769 9.53331 10.3924 14.5797 9.05134 21.8133C8.42679 18.0513 8.29698 14.7446 8.16172 11.2991C8.09678 9.64491 8.03058 7.95873 7.90777 6.17484C7.89805 6.05162 7.88816 5.92252 7.87794 5.78895C7.80427 4.82633 7.71279 3.63109 7.53162 2.72645ZM20.0802 17.7213C20.324 17.9651 20.6355 18.087 21.0147 18.087C21.3803 18.087 21.685 17.9651 21.9288 17.7213C22.1861 17.4776 22.3148 17.1661 22.3148 16.7869C22.3148 16.4077 22.1929 16.0962 21.9491 15.8524C21.7054 15.6087 21.3939 15.4868 21.0147 15.4868C20.6355 15.4868 20.324 15.6087 20.0802 15.8524C19.8365 16.0826 19.7146 16.3941 19.7146 16.7869C19.7146 17.1661 19.8365 17.4776 20.0802 17.7213ZM20.0193 29.8489C20.0193 29.9844 20.087 30.0521 20.2224 30.0521H21.7663C21.9017 30.0521 21.9694 29.9844 21.9694 29.8489V19.9153C21.9694 19.7798 21.9017 19.7121 21.7663 19.7121H20.2224C20.087 19.7121 20.0193 19.7798 20.0193 19.9153V29.8489ZM31.2815 20.4841C30.7398 19.8746 29.9746 19.5699 28.986 19.5699C27.9702 19.5699 27.1983 19.9017 26.6701 20.5653C26.6431 20.606 26.616 20.6263 26.5889 20.6263C26.5753 20.6127 26.5686 20.5856 26.5686 20.545V19.9153C26.5686 19.7798 26.5009 19.7121 26.3654 19.7121H24.8215C24.6861 19.7121 24.6184 19.7798 24.6184 19.9153V29.8489C24.6184 29.9844 24.6861 30.0521 24.8215 30.0521H26.3654C26.5009 30.0521 26.5686 29.9844 26.5686 29.8489V23.3078C26.5686 22.6848 26.7311 22.1905 27.0561 21.8248C27.3947 21.4456 27.8416 21.256 28.3968 21.256C28.9386 21.256 29.3652 21.4388 29.6766 21.8045C30.0017 22.1702 30.1642 22.6645 30.1642 23.2874V29.8489C30.1642 29.9844 30.2319 30.0521 30.3673 30.0521H31.9112C32.0466 30.0521 32.1144 29.9844 32.1144 29.8489V23.003C32.1144 21.9332 31.8367 21.0935 31.2815 20.4841ZM40.2071 15.8321C40.0716 15.8321 40.0039 15.8998 40.0039 16.0352V20.5856C40.0039 20.6263 39.9904 20.6466 39.9633 20.6466C39.9497 20.6466 39.9294 20.633 39.9023 20.606C39.6721 20.2538 39.3809 19.9898 39.0288 19.8137C38.6767 19.6376 38.2366 19.5496 37.7084 19.5496C35.9072 19.5496 34.8035 20.5653 34.3972 22.5968C34.2617 23.2739 34.194 24.0458 34.194 24.9126C34.194 25.7522 34.2753 26.5242 34.4378 27.2284C34.6816 28.2441 35.0608 28.9957 35.5754 29.4833C36.09 29.9708 36.7672 30.2146 37.6068 30.2146C38.6496 30.2146 39.4148 29.8489 39.9023 29.1176C39.9159 29.0905 39.9362 29.0838 39.9633 29.0973C39.9904 29.1109 40.0039 29.1312 40.0039 29.1583V29.8489C40.0039 29.9844 40.0716 30.0521 40.2071 30.0521H41.7509C41.8864 30.0521 41.9541 29.9844 41.9541 29.8489V16.0352C41.9541 15.8998 41.8864 15.8321 41.7509 15.8321H40.2071ZM39.9836 24.872C39.9836 25.8606 39.8956 26.6257 39.7195 27.1675C39.4487 28.0748 38.9205 28.5285 38.135 28.5285C37.2818 28.5285 36.713 28.0613 36.4286 27.1268C36.2525 26.5987 36.1645 25.847 36.1645 24.872C36.1645 23.9104 36.2729 23.1249 36.4895 22.5155C36.801 21.6623 37.3563 21.2357 38.1553 21.2357C38.5616 21.2357 38.8866 21.3508 39.1304 21.581C39.3877 21.7977 39.5773 22.1228 39.6992 22.5561C39.8888 23.0843 39.9836 23.8562 39.9836 24.872ZM47.4021 17.8838C47.6323 17.5994 48.0251 17.4572 48.5803 17.4572H48.9257C49.0611 17.4572 49.1288 17.3895 49.1288 17.2541L49.1491 15.9743C49.1491 15.8389 49.0814 15.7712 48.946 15.7712H48.4788C47.6391 15.7712 46.9755 15.8795 46.488 16.0962C46.014 16.3129 45.6686 16.6718 45.4519 17.1728C45.2353 17.6604 45.1269 18.3308 45.1269 19.184V19.6309C45.1269 19.685 45.0998 19.7121 45.0457 19.7121H43.9893C43.8539 19.7121 43.7862 19.7798 43.7862 19.9153V21.1138C43.7862 21.2492 43.8539 21.317 43.9893 21.317H45.0457C45.0998 21.317 45.1269 21.344 45.1269 21.3982V29.8489C45.1269 29.9844 45.1946 30.0521 45.3301 30.0521H46.8739C47.0094 30.0521 47.0771 29.9844 47.0771 29.8489V21.3982C47.0771 21.344 47.1042 21.317 47.1583 21.317H48.9257C49.0611 21.317 49.1288 21.2492 49.1288 21.1138V19.9153C49.1288 19.7798 49.0611 19.7121 48.9257 19.7121H47.1583C47.1042 19.7121 47.0771 19.685 47.0771 19.6309V19.2855C47.0771 18.6219 47.1854 18.1547 47.4021 17.8838ZM56.7095 19.7121C56.5741 19.7121 56.5064 19.7798 56.5064 19.9153V26.4361C56.5064 27.0727 56.3371 27.5805 55.9985 27.9597C55.6735 28.3254 55.2334 28.5082 54.6781 28.5082C54.1093 28.5082 53.6692 28.3321 53.3577 27.98C53.0597 27.6279 52.9108 27.1336 52.9108 26.4971V19.9153C52.9108 19.7798 52.843 19.7121 52.7076 19.7121H51.1841C51.0486 19.7121 50.9809 19.7798 50.9809 19.9153V27.0253C50.9809 28.0545 51.2789 28.84 51.8747 29.3817C52.4842 29.9234 53.2493 30.1943 54.1702 30.1943C55.186 30.1943 55.9308 29.8557 56.4048 29.1786C56.4319 29.1515 56.4522 29.1447 56.4658 29.1583C56.4928 29.1718 56.5064 29.1921 56.5064 29.2192V29.8489C56.5064 29.9844 56.5741 30.0521 56.7095 30.0521H58.2534C58.3888 30.0521 58.4566 29.9844 58.4566 29.8489V19.9153C58.4566 19.7798 58.3888 19.7121 58.2534 19.7121H56.7095ZM60.9014 29.8489C60.9014 29.9844 60.9691 30.0521 61.1046 30.0521H62.6484C62.7839 30.0521 62.8516 29.9844 62.8516 29.8489V16.0352C62.8516 15.8998 62.7839 15.8321 62.6484 15.8321H61.1046C60.9691 15.8321 60.9014 15.8998 60.9014 16.0352V29.8489ZM65.4902 29.6864C65.734 29.9302 66.0455 30.0521 66.4247 30.0521C66.8039 30.0521 67.1153 29.9302 67.3591 29.6864C67.6029 29.4427 67.7248 29.1312 67.7248 28.752C67.7248 28.3728 67.6029 28.0613 67.3591 27.8175C67.1153 27.5737 66.8039 27.4519 66.4247 27.4519C66.0455 27.4519 65.734 27.5737 65.4902 27.8175C65.2464 28.0613 65.1245 28.3728 65.1245 28.752C65.1245 29.1312 65.2464 29.4427 65.4902 29.6864Z" fill="white"/>
</svg>
