<svg width="33" height="33" viewBox="0 0 33 33" fill="none" xmlns="http://www.w3.org/2000/svg">
<path d="M16.5 3.5C13.9288 3.5 11.4154 4.26244 9.27759 5.6909C7.13975 7.11935 5.47351 9.14968 4.48957 11.5251C3.50563 13.9006 3.24819 16.5144 3.7498 19.0362C4.25141 21.5579 5.48953 23.8743 7.30762 25.6924C9.1257 27.5105 11.4421 28.7486 13.9638 29.2502C16.4856 29.7518 19.0995 29.4944 21.4749 28.5104C23.8503 27.5265 25.8807 25.8603 27.3091 23.7224C28.7376 21.5846 29.5 19.0712 29.5 16.5C29.4964 13.0533 28.1256 9.74882 25.6884 7.31163C23.2512 4.87445 19.9467 3.50364 16.5 3.5ZM16.5 27.5C14.3244 27.5 12.1977 26.8549 10.3887 25.6462C8.57979 24.4375 7.16989 22.7195 6.33733 20.7095C5.50477 18.6995 5.28693 16.4878 5.71137 14.354C6.13581 12.2202 7.18345 10.2602 8.72183 8.72183C10.2602 7.18345 12.2202 6.1358 14.354 5.71136C16.4878 5.28692 18.6995 5.50476 20.7095 6.33733C22.7195 7.16989 24.4375 8.57979 25.6462 10.3887C26.8549 12.1977 27.5 14.3244 27.5 16.5C27.4967 19.4164 26.3367 22.2123 24.2745 24.2745C22.2123 26.3367 19.4164 27.4967 16.5 27.5ZM22.5 16.5C22.5 16.7652 22.3946 17.0196 22.2071 17.2071C22.0196 17.3946 21.7652 17.5 21.5 17.5H17.5V21.5C17.5 21.7652 17.3946 22.0196 17.2071 22.2071C17.0196 22.3946 16.7652 22.5 16.5 22.5C16.2348 22.5 15.9804 22.3946 15.7929 22.2071C15.6054 22.0196 15.5 21.7652 15.5 21.5V17.5H11.5C11.2348 17.5 10.9804 17.3946 10.7929 17.2071C10.6054 17.0196 10.5 16.7652 10.5 16.5C10.5 16.2348 10.6054 15.9804 10.7929 15.7929C10.9804 15.6054 11.2348 15.5 11.5 15.5H15.5V11.5C15.5 11.2348 15.6054 10.9804 15.7929 10.7929C15.9804 10.6054 16.2348 10.5 16.5 10.5C16.7652 10.5 17.0196 10.6054 17.2071 10.7929C17.3946 10.9804 17.5 11.2348 17.5 11.5V15.5H21.5C21.7652 15.5 22.0196 15.6054 22.2071 15.7929C22.3946 15.9804 22.5 16.2348 22.5 16.5Z" fill="black"/>
</svg>
