<svg width="1544" height="772" viewBox="0 0 1544 772" fill="none" xmlns="http://www.w3.org/2000/svg">
<path fill-rule="evenodd" clip-rule="evenodd" d="M184.689 67.047C180.71 47.8249 160.74 48.3701 126.357 74.5259C120.723 78.8935 114.461 82.2411 108.314 85.5276C93.8156 93.2794 79.9535 100.691 76.4609 120.343C54.9683 237.232 14.328 559.044 0.892582 739.928C-2.4522 782.465 39.1981 782.607 43.6363 737.824C54.254 630.07 80.0993 390.183 98.3165 266.222C103.793 304.353 107.582 350.734 111.491 398.586C118.668 486.451 126.25 579.273 145.432 635.067C150.844 651.528 163.125 660.676 175.966 670.24C184.207 676.379 192.679 682.689 199.713 691.214C211.982 706.388 227.303 705.147 231.447 680.872C250.775 565.916 291.903 360.593 337.676 194.839C335.765 264.728 332.038 560.441 336.895 676.139C337.624 689.53 346.587 693.987 359.887 700.601C370.22 705.739 383.171 712.179 396.913 725.122C403.201 732.163 426.002 736.227 426.309 715.716C426.39 708.97 426.504 698.641 426.65 685.35C428.029 560.296 432.3 173.033 439.249 40.9708C441.495 0.68259 435.582 -18.19 372.742 25.3864C368.974 28.1198 365.225 29.8805 361.523 31.6193C349.546 37.2451 338.056 42.6423 327.954 80.0133C285.951 233.329 254.573 356.605 221.813 533.311C206.557 441.412 203.385 360.633 200.081 276.465C198.495 236.055 196.878 194.864 193.878 151.286C193.64 148.276 193.399 145.123 193.149 141.86C191.349 118.344 189.114 89.1462 184.689 67.047ZM487.95 422.85C493.35 428.25 500.25 430.95 508.65 430.95C516.75 430.95 523.5 428.25 528.9 422.85C534.6 417.45 537.45 410.55 537.45 402.15C537.45 393.75 534.75 386.85 529.35 381.45C523.95 376.05 517.05 373.35 508.65 373.35C500.25 373.35 493.35 376.05 487.95 381.45C482.55 386.55 479.85 393.45 479.85 402.15C479.85 410.55 482.55 417.45 487.95 422.85ZM486.6 691.5C486.6 694.5 488.1 696 491.1 696H525.3C528.3 696 529.8 694.5 529.8 691.5V471.45C529.8 468.45 528.3 466.95 525.3 466.95H491.1C488.1 466.95 486.6 468.45 486.6 471.45V691.5ZM736.079 484.05C724.079 470.55 707.129 463.8 685.229 463.8C662.729 463.8 645.629 471.15 633.929 485.85C633.329 486.75 632.729 487.2 632.129 487.2C631.829 486.9 631.679 486.3 631.679 485.4V471.45C631.679 468.45 630.179 466.95 627.179 466.95H592.979C589.979 466.95 588.479 468.45 588.479 471.45V691.5C588.479 694.5 589.979 696 592.979 696H627.179C630.179 696 631.679 694.5 631.679 691.5V546.6C631.679 532.8 635.279 521.85 642.479 513.75C649.979 505.35 659.879 501.15 672.179 501.15C684.179 501.15 693.629 505.2 700.529 513.3C707.729 521.4 711.329 532.35 711.329 546.15V691.5C711.329 694.5 712.829 696 715.829 696H750.029C753.029 696 754.529 694.5 754.529 691.5V539.85C754.529 516.15 748.379 497.55 736.079 484.05ZM933.798 381C930.798 381 929.298 382.5 929.298 385.5V486.3C929.298 487.2 928.998 487.65 928.398 487.65C928.098 487.65 927.648 487.35 927.048 486.75C921.948 478.95 915.498 473.1 907.698 469.2C899.898 465.3 890.148 463.35 878.448 463.35C838.548 463.35 814.098 485.85 805.098 530.85C802.098 545.85 800.598 562.95 800.598 582.15C800.598 600.75 802.398 617.85 805.998 633.45C811.398 655.95 819.798 672.6 831.198 683.4C842.598 694.2 857.598 699.6 876.198 699.6C899.298 699.6 916.248 691.5 927.048 675.3C927.348 674.7 927.798 674.55 928.398 674.85C928.998 675.15 929.298 675.6 929.298 676.2V691.5C929.298 694.5 930.798 696 933.798 696H967.998C970.998 696 972.498 694.5 972.498 691.5V385.5C972.498 382.5 970.998 381 967.998 381H933.798ZM928.848 581.25C928.848 603.15 926.898 620.1 922.998 632.1C916.998 652.2 905.298 662.25 887.898 662.25C868.998 662.25 856.398 651.9 850.098 631.2C846.198 619.5 844.248 602.85 844.248 581.25C844.248 559.95 846.648 542.55 851.448 529.05C858.348 510.15 870.648 500.7 888.348 500.7C897.348 500.7 904.548 503.25 909.948 508.35C915.648 513.15 919.848 520.35 922.548 529.95C926.748 541.65 928.848 558.75 928.848 581.25ZM1093.18 426.45C1098.28 420.15 1106.98 417 1119.28 417H1126.93C1129.93 417 1131.43 415.5 1131.43 412.5L1131.88 384.15C1131.88 381.15 1130.38 379.65 1127.38 379.65H1117.03C1098.43 379.65 1083.73 382.05 1072.93 386.85C1062.43 391.65 1054.78 399.6 1049.98 410.7C1045.18 421.5 1042.78 436.35 1042.78 455.25V465.15C1042.78 466.35 1042.18 466.95 1040.98 466.95H1017.58C1014.58 466.95 1013.08 468.45 1013.08 471.45V498C1013.08 501 1014.58 502.5 1017.58 502.5H1040.98C1042.18 502.5 1042.78 503.1 1042.78 504.3V691.5C1042.78 694.5 1044.28 696 1047.28 696H1081.48C1084.48 696 1085.98 694.5 1085.98 691.5V504.3C1085.98 503.1 1086.58 502.5 1087.78 502.5H1126.93C1129.93 502.5 1131.43 501 1131.43 498V471.45C1131.43 468.45 1129.93 466.95 1126.93 466.95H1087.78C1086.58 466.95 1085.98 466.35 1085.98 465.15V457.5C1085.98 442.8 1088.38 432.45 1093.18 426.45ZM1299.36 466.95C1296.36 466.95 1294.86 468.45 1294.86 471.45V615.9C1294.86 630 1291.11 641.25 1283.61 649.65C1276.41 657.75 1266.66 661.8 1254.36 661.8C1241.76 661.8 1232.01 657.9 1225.11 650.1C1218.51 642.3 1215.21 631.35 1215.21 617.25V471.45C1215.21 468.45 1213.71 466.95 1210.71 466.95H1176.96C1173.96 466.95 1172.46 468.45 1172.46 471.45V628.95C1172.46 651.75 1179.06 669.15 1192.26 681.15C1205.76 693.15 1222.71 699.15 1243.11 699.15C1265.61 699.15 1282.11 691.65 1292.61 676.65C1293.21 676.05 1293.66 675.9 1293.96 676.2C1294.56 676.5 1294.86 676.95 1294.86 677.55V691.5C1294.86 694.5 1296.36 696 1299.36 696H1333.56C1336.56 696 1338.06 694.5 1338.06 691.5V471.45C1338.06 468.45 1336.56 466.95 1333.56 466.95H1299.36ZM1392.22 691.5C1392.22 694.5 1393.72 696 1396.72 696H1430.92C1433.92 696 1435.42 694.5 1435.42 691.5V385.5C1435.42 382.5 1433.92 381 1430.92 381H1396.72C1393.72 381 1392.22 382.5 1392.22 385.5V691.5ZM1493.87 687.9C1499.27 693.3 1506.17 696 1514.57 696C1522.97 696 1529.87 693.3 1535.27 687.9C1540.67 682.5 1543.37 675.6 1543.37 667.2C1543.37 658.8 1540.67 651.9 1535.27 646.5C1529.87 641.1 1522.97 638.4 1514.57 638.4C1506.17 638.4 1499.27 641.1 1493.87 646.5C1488.47 651.9 1485.77 658.8 1485.77 667.2C1485.77 675.6 1488.47 682.5 1493.87 687.9Z" fill="black"/>
</svg>
